<?xml version="1.0"?>
<svg xmlns="http://www.w3.org/2000/svg" xmlns:xlink="http://www.w3.org/1999/xlink" id="Layer_1" data-name="Layer 1" viewBox="0 0 512 512" width="512" height="512"><defs><linearGradient id="linear-gradient" x1="39.258" y1="476" x2="39.258" y2="35.632" gradientUnits="userSpaceOnUse"><stop offset="0.322" stop-color="#a163f5"/><stop offset="0.466" stop-color="#b074ee"/><stop offset="0.752" stop-color="#d8a1dd"/><stop offset="0.898" stop-color="#efbad3"/></linearGradient><linearGradient id="linear-gradient-2" x1="119" y1="476" x2="119" y2="35.632" xlink:href="#linear-gradient"/><linearGradient id="linear-gradient-3" x1="156.658" y1="476" x2="156.658" y2="35.632" xlink:href="#linear-gradient"/><linearGradient id="linear-gradient-4" x1="156.829" y1="476" x2="156.829" y2="35.632" xlink:href="#linear-gradient"/><linearGradient id="linear-gradient-5" x1="383.5" y1="476" x2="383.5" y2="35.632" xlink:href="#linear-gradient"/><linearGradient id="linear-gradient-6" x1="470.627" y1="476" x2="470.627" y2="35.632" xlink:href="#linear-gradient"/><linearGradient id="linear-gradient-7" x1="342.555" y1="476" x2="342.555" y2="35.632" xlink:href="#linear-gradient"/><linearGradient id="linear-gradient-8" x1="342.555" y1="476" x2="342.555" y2="35.632" xlink:href="#linear-gradient"/><linearGradient id="linear-gradient-9" x1="336" y1="476" x2="336" y2="35.632" xlink:href="#linear-gradient"/><linearGradient id="linear-gradient-11" x1="386" y1="476" x2="386" y2="35.632" xlink:href="#linear-gradient"/><linearGradient id="linear-gradient-13" x1="286" y1="476" x2="286" y2="35.632" xlink:href="#linear-gradient"/><linearGradient id="linear-gradient-15" x1="157" y1="476" x2="157" y2="35.632" xlink:href="#linear-gradient"/><linearGradient id="linear-gradient-17" x1="107" y1="476" x2="107" y2="35.632" xlink:href="#linear-gradient"/><linearGradient id="linear-gradient-19" x1="207" y1="476" x2="207" y2="35.632" xlink:href="#linear-gradient"/></defs><title>Business Payment
</title><path d="M39.258,459.309A15.04,15.04,0,1,0,54,474.346,14.909,14.909,0,0,0,39.258,459.309Zm0,18.074A3.052,3.052,0,1,1,42,474.346,2.9,2.9,0,0,1,39.258,477.383Z" style="fill:url(#linear-gradient)"/><path d="M213.5,161H99.811A14.767,14.767,0,0,0,85,175.686v95.149L35.914,311.514c-.159.131-.116.27-.259.417A27.045,27.045,0,0,0,28,331.123V446H26a15.7,15.7,0,0,0-16,15.623V486a16.019,16.019,0,0,0,16,16h94.954A16.058,16.058,0,0,0,137,486V461.623a15.957,15.957,0,0,0-14-15.847V423.954a27.332,27.332,0,0,0,21-26.725V376h69.5A14.584,14.584,0,0,0,228,361.215V175.686A14.5,14.5,0,0,0,213.5,161ZM125,486a4,4,0,0,1-4,4H26a4,4,0,0,1-4-4V462a4,4,0,0,1,4-4h95a4,4,0,0,1,4,4Zm7-88.771a15.24,15.24,0,0,1-15.193,15.387,5.838,5.838,0,0,0-5.807,6V446H40V331.123a15.105,15.105,0,0,1,4-10.579l41-34.127v35.225L59.735,341.673a6.008,6.008,0,0,0,7.474,9.408l47.178-37.353,0,0a10.041,10.041,0,0,1,0,14.2L91.709,350.613a6.005,6.005,0,0,0-1.747,3.9l-.286,4.947c-.007.115-.01.231-.01.346a27.26,27.26,0,0,0,2.686,11.65A23.017,23.017,0,0,1,90.841,393.9,5.856,5.856,0,0,0,90,397.229v10.693a6,6,0,0,0,12,0v-8.971A35.327,35.327,0,0,0,106.1,376H132Zm84-36.014A2.58,2.58,0,0,1,213.5,364H102.317a12.871,12.871,0,0,1-.65-4.021l.144-2.486,21.067-21.074a22.043,22.043,0,0,0,0-31.172l-3.78-3.782a6.044,6.044,0,0,0-8-.462L97,312.14V175.686A2.755,2.755,0,0,1,99.811,173H213.5a2.5,2.5,0,0,1,2.5,2.686Z" style="fill:url(#linear-gradient-2)"/><path d="M156.657,215.285a49.728,49.728,0,1,0,49.729,49.728A49.784,49.784,0,0,0,156.657,215.285Zm0,87.456a37.728,37.728,0,1,1,37.729-37.728A37.77,37.77,0,0,1,156.657,302.741Z" style="fill:url(#linear-gradient-3)"/><path d="M156.657,248.505a5.134,5.134,0,0,1,5.128,5.127,6,6,0,0,0,6,6,6.149,6.149,0,0,0,6.172-6A17.715,17.715,0,0,0,163,237.611v-1.22a6,6,0,1,0-12,0v1.22a16.6,16.6,0,0,0-11.3,16.021,17.074,17.074,0,0,0,17.041,17.128,5.1,5.1,0,0,1,5.085,5.127,5.148,5.148,0,0,1-5.1,5.122l-.062,0-.057,0a5.131,5.131,0,0,1-5.078-5.122,6,6,0,0,0-6-6,5.857,5.857,0,0,0-5.83,6A16.6,16.6,0,0,0,151,291.909v1.726a6,6,0,0,0,12,0v-1.726a17.718,17.718,0,0,0,10.957-16.022,17.221,17.221,0,0,0-17.214-17.127,5.171,5.171,0,0,1-5.17-5.128A5.1,5.1,0,0,1,156.657,248.505Z" style="fill:url(#linear-gradient-4)"/><path d="M486,10H380.6A15.678,15.678,0,0,0,365,26V54.412c0,8.54,6,15.519,15,15.957V95.036a29.291,29.291,0,0,0-24,28.714V147H280.541C271.972,147,265,154.469,265,163.038v202.4A15.581,15.581,0,0,0,280.541,381H404.569A15.487,15.487,0,0,0,420,365.434V261.378l53.837-44.541c.159-.131.462-.27.605-.417A29.311,29.311,0,0,0,483,195.866V70h3a15.672,15.672,0,0,0,16-15.588V26A16.019,16.019,0,0,0,486,10ZM404.569,369H280.541A3.567,3.567,0,0,1,277,365.434v-202.4c0-1.952,1.589-4.038,3.541-4.038h121.7a20.353,20.353,0,0,1,.849,5.172l-.169,3.052L379.79,190.417a23.563,23.563,0,0,0,0,33.262l4.125,4.14a5.994,5.994,0,0,0,4.244,1.766,5.826,5.826,0,0,0,3.668-1.293L408,215.447V365.434A3.475,3.475,0,0,1,404.569,369ZM471,195.866a17.407,17.407,0,0,1-4.948,11.94L420,245.8V205.945l27.86-22.016a5.987,5.987,0,1,0-7.408-9.408l-51.837,41.051-.342-.347a11.512,11.512,0,0,1,0-16.261l24.747-24.746a6,6,0,0,0,1.748-3.9l.313-5.4c.007-.115.01-.231.01-.346a29.2,29.2,0,0,0-2.878-12.477,25.672,25.672,0,0,1,1.824-25.024A5.96,5.96,0,0,0,415,123.75V112.085a6,6,0,0,0-12,0v9.936C399,129.71,396.9,139,398.351,147H368V123.75a17.64,17.64,0,0,1,17.665-17.331,6.3,6.3,0,0,0,6.335-6V70h79ZM490,54a4,4,0,0,1-4,4H381a4,4,0,0,1-4-4V26a4,4,0,0,1,4-4H486a4,4,0,0,1,4,4Z" style="fill:url(#linear-gradient-5)"/><path d="M470.628,23.764a15.862,15.862,0,1,0,15.54,15.859A15.72,15.72,0,0,0,470.628,23.764Zm0,19.717a3.873,3.873,0,1,1,3.54-3.858A3.714,3.714,0,0,1,470.628,43.481Z" style="fill:url(#linear-gradient-6)"/><path d="M342.556,214.282a53.7,53.7,0,1,0,53.7,53.7A53.765,53.765,0,0,0,342.556,214.282Zm0,95.407a41.7,41.7,0,1,1,41.7-41.7A41.751,41.751,0,0,1,342.556,309.689Z" style="fill:url(#linear-gradient-7)"/><path d="M358.562,254h.066a5.99,5.99,0,0,0,.063-11.979l-22.736-.083-9.113.062h-.066a5.868,5.868,0,0,0-6,5.779,5.933,5.933,0,0,0,5.936,5.985l9.113.058a7.466,7.466,0,0,1,4.739,1.522L326.7,255h-.065a6.154,6.154,0,0,0-6,6.111,6.077,6.077,0,0,0,5.935,6.152l13.878.193a7.8,7.8,0,0,1-4.782,1.636l-9.114-.086a5.915,5.915,0,0,0-5.615,3.728,6,6,0,0,0,1.383,6.6L344.865,301.1a6,6,0,1,0,8.334-8.632l-12.428-12A19.557,19.557,0,0,0,349.5,275.5a19.034,19.034,0,0,0,4.9-7.7l4.012.2h.065a6.134,6.134,0,0,0,6-6.089,6.067,6.067,0,0,0-5.935-6.141l-4.012-.081c-.174-.567-.369-1.158-.594-1.706Z" style="fill:url(#linear-gradient-8)"/><path d="M336,452.3a6,6,0,0,0-6,6v37.006a6,6,0,0,0,12,0V458.3A6,6,0,0,0,336,452.3Z" style="fill:url(#linear-gradient-9)"/><path d="M336,417.088a6,6,0,0,0-6,6v10.1a6,6,0,1,0,12,0v-10.1A6,6,0,0,0,336,417.088Z" style="fill:url(#linear-gradient-9)"/><path d="M386,442.3a6,6,0,0,0-6,6v27.006a6,6,0,0,0,12,0V448.3A6,6,0,0,0,386,442.3Z" style="fill:url(#linear-gradient-11)"/><path d="M386,397.088a6,6,0,0,0-6,6v20.1a6,6,0,1,0,12,0v-20.1A6,6,0,0,0,386,397.088Z" style="fill:url(#linear-gradient-11)"/><path d="M286,450.3a6,6,0,0,0-6,6v19.006a6,6,0,0,0,12,0V456.3A6,6,0,0,0,286,450.3Z" style="fill:url(#linear-gradient-13)"/><path d="M286,397.088a6,6,0,0,0-6,6v32.1a6,6,0,1,0,12,0v-32.1A6,6,0,0,0,286,397.088Z" style="fill:url(#linear-gradient-13)"/><path d="M157,85.487a6,6,0,0,0,6-6V42.481a6,6,0,1,0-12,0V79.487A6,6,0,0,0,157,85.487Z" style="fill:url(#linear-gradient-15)"/><path d="M157,120.7a6,6,0,0,0,6-6V104.6a6,6,0,0,0-12,0v10.1A6,6,0,0,0,157,120.7Z" style="fill:url(#linear-gradient-15)"/><path d="M107,95.487a6,6,0,0,0,6-6V62.481a6,6,0,1,0-12,0V89.487A6,6,0,0,0,107,95.487Z" style="fill:url(#linear-gradient-17)"/><path d="M107,140.7a6,6,0,0,0,6-6V114.6a6,6,0,0,0-12,0v20.1A6,6,0,0,0,107,140.7Z" style="fill:url(#linear-gradient-17)"/><path d="M207,87.487a6,6,0,0,0,6-6V62.481a6,6,0,1,0-12,0V81.487A6,6,0,0,0,207,87.487Z" style="fill:url(#linear-gradient-19)"/><path d="M207,140.7a6,6,0,0,0,6-6V102.6a6,6,0,0,0-12,0v32.1A6,6,0,0,0,207,140.7Z" style="fill:url(#linear-gradient-19)"/></svg>
